<?xml version="1.0" standalone="no"?>
<!DOCTYPE svg PUBLIC "-//W3C//DTD SVG 20010904//EN"
 "http://www.w3.org/TR/2001/REC-SVG-20010904/DTD/svg10.dtd">
<svg version="1.0" xmlns="http://www.w3.org/2000/svg"
 width="2134.000000pt" height="2134.000000pt" viewBox="0 0 2134.000000 2134.000000"
 preserveAspectRatio="xMidYMid meet">

<g transform="translate(0.000000,2134.000000) scale(0.100000,-0.100000)"
fill="#000000" stroke="none">
<path d="M9319 17733 c-635 -515 -1363 -1107 -1619 -1315 -255 -208 -470 -377
-476 -376 -7 2 -322 255 -701 563 -378 308 -693 560 -698 559 -6 -1 -375 -298
-820 -660 -446 -363 -1073 -873 -1395 -1134 l-584 -475 1402 -3 1402 -2 696
566 c383 311 701 563 708 561 6 -3 323 -257 705 -566 l693 -561 1857 0 1856 1
695 564 c382 311 695 569 695 574 0 13 -3234 2641 -3250 2641 -7 0 -531 -422
-1166 -937z"/>
<path d="M14456 16604 c-383 -312 -696 -570 -696 -574 0 -5 313 -263 696 -574
l696 -566 1401 0 c1185 0 1399 2 1387 14 -8 7 -618 503 -1355 1101 -737 599
-1361 1106 -1386 1127 l-46 38 -697 -566z"/>
<path d="M6555 14905 l-670 -545 -1432 0 -1433 0 0 -235 0 -235 7470 0 7470 0
0 235 0 235 -1430 0 -1431 0 -665 541 c-366 297 -671 542 -679 545 -8 3 -290
-219 -685 -540 l-671 -546 -1912 0 -1912 1 -670 544 c-368 300 -672 545 -675
545 -3 0 -306 -246 -675 -545z"/>
<path d="M3020 13202 l0 -229 5507 -6 c3028 -4 6390 -7 7470 -7 l1963 0 0 235
0 235 -7470 0 -7470 0 0 -228z"/>
<path d="M7183 12590 c-159 -29 -334 -132 -438 -257 -109 -132 -169 -301 -168
-478 0 -134 17 -205 81 -335 125 -255 433 -432 704 -405 323 31 591 260 673
575 23 85 23 244 1 330 -22 88 -94 232 -153 305 -91 112 -223 200 -368 245
-80 24 -249 35 -332 20z m252 -292 c111 -28 248 -143 298 -250 80 -169 43
-373 -90 -505 -128 -125 -285 -170 -446 -128 -81 21 -127 47 -194 109 -78 73
-120 145 -140 242 -31 153 15 300 128 413 120 120 274 162 444 119z"/>
<path d="M3990 12564 c0 -19 1174 -1994 1181 -1987 5 5 267 454 582 998 l573
990 -145 3 c-108 2 -148 -1 -157 -10 -6 -7 -202 -341 -434 -743 -233 -401
-424 -731 -425 -733 -1 -1 -199 333 -440 743 l-438 745 -148 0 c-82 0 -149 -3
-149 -6z"/>
<path d="M8420 11620 l0 -950 510 0 510 0 0 130 0 130 -380 0 -380 0 0 820 0
820 -130 0 -130 0 0 -950z"/>
<path d="M10229 12553 c194 -337 1169 -1975 1175 -1975 7 0 1139 1942 1153
1980 4 9 -29 12 -143 12 l-149 0 -429 -740 c-236 -407 -432 -740 -435 -740 -4
0 -203 333 -441 740 l-435 740 -153 0 c-143 0 -152 -1 -143 -17z"/>
<path d="M12810 11620 l0 -950 730 0 730 0 0 130 0 130 -600 0 -600 0 0 275 0
275 600 0 600 0 0 135 0 135 -600 0 -600 0 0 275 0 275 600 0 600 0 0 135 0
135 -730 0 -730 0 0 -950z"/>
<path d="M14600 11620 l0 -950 130 0 130 0 0 285 0 285 410 0 409 0 268 -285
268 -285 184 0 c173 0 183 1 170 18 -8 9 -137 147 -288 305 -150 158 -272 289
-270 291 2 2 31 13 64 25 159 59 303 167 364 275 98 172 106 412 19 596 -48
102 -169 215 -289 273 -52 25 -123 55 -158 66 -147 50 -163 51 -807 51 l-604
0 0 -950z m1215 675 c139 -20 219 -50 316 -121 161 -118 173 -385 23 -524 -56
-52 -126 -86 -232 -113 -84 -21 -103 -22 -572 -22 l-485 0 -3 385 c-1 212 0
391 3 397 7 20 814 18 950 -2z"/>
<path d="M6680 10800 l0 -130 645 0 645 0 0 130 0 130 -645 0 -645 0 0 -130z"/>
<path d="M2327 10009 c-25 -38 -1147 -1972 -1147 -1976 0 -2 70 -2 156 -1
l157 3 172 295 c95 162 176 295 180 295 4 0 115 -152 245 -338 131 -186 240
-340 241 -342 2 -2 119 152 259 341 140 189 257 344 260 344 3 0 84 -135 180
-300 l175 -299 158 -1 c87 0 156 3 154 8 -3 5 -1054 1790 -1152 1956 l-23 38
-15 -23z m168 -771 c83 -138 162 -272 177 -298 l28 -46 -175 -240 c-96 -131
-179 -239 -184 -239 -6 0 -86 108 -180 239 l-170 239 27 47 c186 324 318 550
322 550 3 0 73 -113 155 -252z"/>
<path d="M6917 10023 c-2 -4 -255 -440 -562 -968 -306 -528 -566 -975 -577
-992 l-20 -33 159 0 158 0 174 300 c96 165 177 300 180 300 3 0 80 -107 171
-237 91 -130 199 -285 241 -344 l76 -109 254 344 c140 190 257 345 260 345 4
1 87 -134 184 -299 l177 -300 154 0 c85 0 154 2 154 5 0 6 -1160 1976 -1170
1988 -4 5 -10 5 -13 0z m188 -829 c97 -163 174 -301 172 -307 -10 -24 -343
-471 -352 -473 -9 -3 -334 449 -343 476 -4 12 333 600 343 600 2 0 83 -133
180 -296z"/>
<path d="M18862 9964 c-22 -38 -282 -485 -577 -994 -295 -509 -539 -928 -542
-932 -2 -5 67 -8 154 -8 l158 0 174 300 c95 165 176 300 180 300 3 -1 101
-136 216 -302 116 -166 224 -321 241 -345 l30 -43 255 345 c140 189 258 343
262 342 4 -1 86 -135 181 -297 l174 -295 156 -3 c86 -1 156 -1 156 2 0 4
-1120 1907 -1160 1970 l-18 29 -40 -69z m227 -777 c94 -159 171 -291 171 -293
0 -9 -351 -484 -358 -484 -7 1 -320 440 -336 471 -7 14 29 82 154 301 179 311
180 312 190 301 4 -4 85 -138 179 -296z"/>
<path d="M13933 9923 l-573 -3 0 -945 0 -945 130 0 130 0 0 285 0 285 408 0
407 -1 265 -284 265 -284 188 0 188 -1 -285 300 c-157 165 -286 304 -286 309
0 4 18 13 39 20 22 6 81 32 132 58 166 83 284 228 318 391 16 75 13 236 -4
310 -32 135 -131 270 -258 353 -107 70 -395 165 -472 156 -11 -1 -278 -3 -592
-4z m735 -286 c81 -24 192 -80 237 -120 112 -97 143 -291 68 -428 -49 -91
-139 -152 -281 -191 -73 -20 -104 -22 -574 -25 l-498 -4 0 396 0 396 498 -4
c421 -3 505 -6 550 -20z"/>
<path d="M16123 9923 l-573 -3 0 -945 0 -945 130 0 130 0 0 285 0 285 408 0
407 0 265 -284 265 -284 190 -1 189 -1 -70 73 c-155 158 -504 530 -504 537 0
4 18 12 39 19 90 26 223 103 291 167 101 96 153 203 170 350 30 274 -89 502
-330 628 -117 61 -358 132 -419 124 -9 -2 -274 -4 -588 -5z m741 -287 c99 -29
187 -78 247 -136 71 -70 94 -130 93 -250 0 -75 -4 -92 -32 -146 -53 -105 -142
-168 -291 -207 -70 -19 -116 -20 -573 -24 l-498 -4 0 396 0 396 498 -4 c438
-3 504 -6 556 -21z"/>
<path d="M4370 8975 l0 -945 510 0 510 0 0 130 0 130 -380 0 -380 0 0 815 0
815 -130 0 -130 0 0 -945z"/>
<path d="M8950 9780 l0 -140 380 0 380 0 0 -805 0 -805 130 0 130 0 0 805 0
805 385 0 385 0 0 140 0 140 -895 0 -895 0 0 -140z"/>
<path d="M10930 8975 l0 -945 130 0 130 0 0 945 0 945 -130 0 -130 0 0 -945z"/>
<path d="M11570 8975 l0 -945 730 0 730 0 0 130 0 130 -605 0 -605 0 2 273 3
272 603 3 602 2 0 135 0 135 -605 0 -605 0 2 273 3 272 603 3 602 2 0 130 0
130 -730 0 -730 0 0 -945z"/>
<path d="M3020 7435 l0 -235 7470 0 7470 0 0 235 0 235 -7470 0 -7470 0 0
-235z"/>
<path d="M3020 6525 l0 -235 1433 0 1432 0 670 -545 c368 -300 673 -545 676
-545 3 0 307 245 675 545 l669 544 1911 1 1912 0 671 -546 c436 -354 677 -544
687 -540 8 3 313 249 679 546 l665 540 1430 0 1430 0 0 235 0 235 -7470 0
-7470 0 0 -235z"/>
<path d="M3030 5786 c8 -8 595 -485 1305 -1061 710 -577 1335 -1085 1390
-1130 l101 -83 699 569 c385 313 702 569 705 569 3 0 651 -525 1440 -1166 789
-642 1521 -1236 1627 -1321 l192 -155 1598 1299 c879 714 1611 1308 1627 1321
l30 23 -25 23 c-13 13 -326 269 -695 569 l-672 544 -1855 8 -1856 7 -702 -571
c-387 -314 -705 -571 -708 -571 -3 0 -321 256 -706 570 l-700 569 -1405 1
c-1198 0 -1402 -2 -1390 -14z"/>
<path d="M14450 5224 c-382 -311 -694 -567 -693 -570 2 -9 1387 -1133 1395
-1134 3 0 635 511 1403 1135 l1396 1135 -1403 0 -1403 -1 -695 -565z"/>
</g>
</svg>
